<svg width="179" height="162" viewBox="0 0 179 162" fill="none" xmlns="http://www.w3.org/2000/svg">
<path fill-rule="evenodd" clip-rule="evenodd" d="M73.6478 0H178.6L157.302 50.5395H52.3496L73.6478 0ZM79.4362 8.73581L65.5009 41.8037H151.513L165.449 8.73581H79.4362Z" fill="url(#paint0_linear_1845_666)"/>
<path fill-rule="evenodd" clip-rule="evenodd" d="M63.1072 110.897H168.053L146.771 161.613H41.8247L63.1072 110.897ZM68.9052 119.633L54.9542 152.877H140.973L154.923 119.633H68.9052Z" fill="url(#paint1_linear_1845_666)"/>
<path fill-rule="evenodd" clip-rule="evenodd" d="M21.298 55.688H149.152L127.854 106.228H0L21.298 55.688ZM27.0864 64.4238L13.1512 97.4917H122.065L136.001 64.4238H27.0864Z" fill="url(#paint2_linear_1845_666)"/>
<defs>
<linearGradient id="paint0_linear_1845_666" x1="47.3497" y1="25.3331" x2="183.507" y2="25.3331" gradientUnits="userSpaceOnUse">
<stop stop-color="#FF8310"/>
<stop offset="1" stop-color="#FF5700"/>
</linearGradient>
<linearGradient id="paint1_linear_1845_666" x1="36.8253" y1="136.318" x2="172.96" y2="136.318" gradientUnits="userSpaceOnUse">
<stop stop-color="#FF8310"/>
<stop offset="1" stop-color="#FF5700"/>
</linearGradient>
<linearGradient id="paint2_linear_1845_666" x1="-5.90715" y1="81.0211" x2="154.95" y2="81.0211" gradientUnits="userSpaceOnUse">
<stop stop-color="#FF8310"/>
<stop offset="1" stop-color="#FF5700"/>
</linearGradient>
</defs>
</svg>
