<svg width="178" height="40" viewBox="0 0 178 40" fill="none" xmlns="http://www.w3.org/2000/svg">
    <path fill-rule="evenodd" clip-rule="evenodd"
          d="M18.2074 0H44.1539L38.8885 12.4789H12.942L18.2074 0ZM19.6384 2.15699L16.1933 10.3219H37.4575L40.9026 2.15699H19.6384Z"
          fill="url(#paint0_linear_1528_227)"/>
    <path fill-rule="evenodd" clip-rule="evenodd"
          d="M15.6015 27.382H41.5465L36.285 39.9044H10.34L15.6015 27.382ZM17.0349 29.539L13.5859 37.7474H34.8516L38.3005 29.539H17.0349Z"
          fill="url(#paint1_linear_1528_227)"/>
    <path fill-rule="evenodd" clip-rule="evenodd"
          d="M5.26535 13.7501H36.8736L31.6083 26.229H0L5.26535 13.7501ZM6.69637 15.9071L3.25127 24.072H30.1773L33.6224 15.9071H6.69637Z"
          fill="url(#paint2_linear_1528_227)"/>
    <path d="M58.709 25.8213H62.2137V26.0346C62.2137 26.9692 61.8378 27.9241 61.0861 28.8993C60.3547 29.8745 59.3693 30.6161 58.13 31.124C56.9109 31.6116 55.5091 31.8554 53.9243 31.8554C50.6939 31.8554 48.2051 30.8193 46.4578 28.7469C44.7105 26.6543 43.8369 24.0131 43.8369 20.8233C43.8369 17.5726 44.7613 14.8805 46.6102 12.7473C48.459 10.5937 50.8463 9.51685 53.772 9.51685C55.377 9.51685 56.8297 9.86224 58.13 10.553C59.4303 11.2438 60.4563 12.3308 61.208 13.8139C61.98 15.2767 62.3661 17.3288 62.3661 19.97V21.128H47.3111C47.3111 23.4036 47.9206 25.2727 49.1397 26.7355C50.3587 28.1984 52.0552 28.9298 54.2291 28.9298C55.7732 28.9298 56.9008 28.6352 57.6119 28.046C58.3433 27.4365 58.709 26.766 58.709 26.0346V25.8213ZM47.5549 18.4767H58.9833V18.05C58.9833 17.0748 58.7395 16.1199 58.2519 15.1853C57.7846 14.2507 57.1344 13.5599 56.3014 13.113C55.4684 12.666 54.4932 12.4425 53.3758 12.4425C52.0755 12.4425 50.8666 12.9707 49.7492 14.0272C48.6317 15.0837 47.9003 16.5669 47.5549 18.4767Z"
          fill="#FF5B02"/>
    <path d="M70.7102 31.2764H67.1751V10.0959H70.7102V13.9358C71.4417 12.6558 72.1324 11.7416 72.7826 11.193C73.4327 10.6241 74.1438 10.2076 74.9159 9.9435C75.6879 9.65906 76.5006 9.51685 77.3539 9.51685C78.2275 9.51685 79.0606 9.65906 79.8529 9.9435C80.6656 10.2076 81.3564 10.614 81.9253 11.1625C82.5145 11.6908 83.0935 12.6152 83.6624 13.9358C84.3735 12.6965 85.0846 11.7924 85.7957 11.2235C86.5068 10.6546 87.228 10.2279 87.9594 9.9435C88.6908 9.65906 89.473 9.51685 90.306 9.51685C91.5047 9.51685 92.5917 9.80128 93.5669 10.3702C94.5421 10.9187 95.2939 11.7111 95.8221 12.7473C96.3504 13.7834 96.6145 15.551 96.6145 18.05V31.2764H93.0793V19.5128C93.0793 17.0138 92.9269 15.4393 92.6222 14.7891C92.3174 14.1187 91.9009 13.6107 91.3727 13.2653C90.8648 12.92 90.2349 12.7473 89.4832 12.7473C88.4267 12.7473 87.4515 13.0723 86.5575 13.7225C85.6839 14.3726 84.983 15.2564 84.4547 16.3739C83.9265 17.471 83.6624 19.0049 83.6624 20.9757V31.2764H80.1272V19.5128C80.1272 17.0138 79.9951 15.4393 79.731 14.7891C79.4669 14.1187 79.0301 13.6107 78.4206 13.2653C77.8314 12.92 77.2015 12.7473 76.5311 12.7473C75.5559 12.7473 74.601 13.0825 73.6664 13.753C72.7521 14.4234 72.0309 15.3174 71.5026 16.4348C70.9744 17.5522 70.7102 19.0659 70.7102 20.9757V31.2764Z"
          fill="#FF5B02"/>
    <path d="M115.735 25.8213H119.239V26.0346C119.239 26.9692 118.863 27.9241 118.112 28.8993C117.38 29.8745 116.395 30.6161 115.155 31.124C113.936 31.6116 112.535 31.8554 110.95 31.8554C107.719 31.8554 105.231 30.8193 103.483 28.7469C101.736 26.6543 100.862 24.0131 100.862 20.8233C100.862 17.5726 101.787 14.8805 103.636 12.7473C105.485 10.5937 107.872 9.51685 110.797 9.51685C112.403 9.51685 113.855 9.86224 115.155 10.553C116.456 11.2438 117.482 12.3308 118.234 13.8139C119.006 15.2767 119.392 17.3288 119.392 19.97V21.128H104.337C104.337 23.4036 104.946 25.2727 106.165 26.7355C107.384 28.1984 109.081 28.9298 111.255 28.9298C112.799 28.9298 113.926 28.6352 114.637 28.046C115.369 27.4365 115.735 26.766 115.735 26.0346V25.8213ZM104.58 18.4767H116.009V18.05C116.009 17.0748 115.765 16.1199 115.277 15.1853C114.81 14.2507 114.16 13.5599 113.327 13.113C112.494 12.666 111.519 12.4425 110.401 12.4425C109.101 12.4425 107.892 12.9707 106.775 14.0272C105.657 15.0837 104.926 16.5669 104.58 18.4767Z"
          fill="#FF5B02"/>
    <path d="M127.736 31.2764H124.201V10.0959H127.736V13.8444C128.325 12.7676 128.965 11.9346 129.656 11.3454C130.347 10.7359 131.078 10.2787 131.85 9.97398C132.622 9.66922 133.414 9.51685 134.227 9.51685C134.958 9.51685 135.588 9.61843 136.117 9.8216V13.4787C135.284 13.0926 134.4 12.8996 133.465 12.8996C132.145 12.8996 130.854 13.4787 129.595 14.6367C128.355 15.7948 127.736 17.857 127.736 20.8233V31.2764Z"
          fill="#FF5B02"/>
    <path d="M152.434 25.8213H155.969V26.0346C155.969 26.9692 155.614 27.9241 154.903 28.8993C154.192 29.8542 153.257 30.5856 152.099 31.0936C150.941 31.6015 149.549 31.8554 147.924 31.8554C144.795 31.8554 142.387 30.8701 140.701 28.8993C139.015 26.9286 138.172 24.1858 138.172 20.6709C138.172 17.1967 139.015 14.4742 140.701 12.5035C142.387 10.5124 144.795 9.51685 147.924 9.51685C149.549 9.51685 150.941 9.77081 152.099 10.2787C153.257 10.7867 154.192 11.4876 154.903 12.3816C155.614 13.2755 155.969 14.2609 155.969 15.3377V15.551H152.434V15.3377C152.475 14.586 152.13 13.9155 151.398 13.3263C150.687 12.7371 149.59 12.4425 148.107 12.4425C146.339 12.4425 144.856 13.0926 143.657 14.3929C142.459 15.6932 141.859 17.7859 141.859 20.6709C141.859 23.5762 142.459 25.6791 143.657 26.9794C144.856 28.2796 146.339 28.9298 148.107 28.9298C149.59 28.9298 150.677 28.6454 151.368 28.0765C152.079 27.4873 152.434 26.8067 152.434 26.0346V25.8213Z"
          fill="#FF5B02"/>
    <path d="M174.239 25.8213H177.743V26.0346C177.743 26.9692 177.368 27.9241 176.616 28.8993C175.884 29.8745 174.899 30.6161 173.66 31.124C172.441 31.6116 171.039 31.8554 169.454 31.8554C166.224 31.8554 163.735 30.8193 161.988 28.7469C160.24 26.6543 159.367 24.0131 159.367 20.8233C159.367 17.5726 160.291 14.8805 162.14 12.7473C163.989 10.5937 166.376 9.51685 169.302 9.51685C170.907 9.51685 172.359 9.86224 173.66 10.553C174.96 11.2438 175.986 12.3308 176.738 13.8139C177.51 15.2767 177.896 17.3288 177.896 19.97V21.128H162.841C162.841 23.4036 163.45 25.2727 164.669 26.7355C165.888 28.1984 167.585 28.9298 169.759 28.9298C171.303 28.9298 172.431 28.6352 173.142 28.046C173.873 27.4365 174.239 26.766 174.239 26.0346V25.8213ZM163.085 18.4767H174.513V18.05C174.513 17.0748 174.269 16.1199 173.782 15.1853C173.314 14.2507 172.664 13.5599 171.831 13.113C170.998 12.666 170.023 12.4425 168.906 12.4425C167.605 12.4425 166.396 12.9707 165.279 14.0272C164.161 15.0837 163.43 16.5669 163.085 18.4767Z"
          fill="#FF5B02"/>
    <defs>
        <linearGradient id="paint0_linear_1528_227" x1="11.7059" y1="6.25508" x2="45.3671" y2="6.25508"
                        gradientUnits="userSpaceOnUse">
            <stop stop-color="#FF8310"/>
            <stop offset="1" stop-color="#FF5700"/>
        </linearGradient>
        <linearGradient id="paint1_linear_1528_227" x1="9.10403" y1="33.6589" x2="42.7596" y2="33.6589"
                        gradientUnits="userSpaceOnUse">
            <stop stop-color="#FF8310"/>
            <stop offset="1" stop-color="#FF5700"/>
        </linearGradient>
        <linearGradient id="paint2_linear_1528_227" x1="-1.46038" y1="20.0052" x2="38.307" y2="20.0052"
                        gradientUnits="userSpaceOnUse">
            <stop stop-color="#FF8310"/>
            <stop offset="1" stop-color="#FF5700"/>
        </linearGradient>
    </defs>
</svg>
